<?xml version="1.0" encoding="UTF-8"?>
<svg version="1.1" viewBox="0 0 2048 656" width="1280" height="1280" xmlns="http://www.w3.org/2000/svg">
<path transform="translate(96,34)" d="m0 0h242l14 3 12 5 11 7 10 9 6 7 8 14 4 11 2 11v245l-4 15-7 14-9 12-9 8-11 7-11 5-12 3-7 1h-118v188h-121l-14-3-12-5-10-6-10-9-9-10-8-15-4-14-1-7v-427l3-15 5-13 9-13 13-13 13-8 13-5z" fill="#FED803"/>
<path transform="translate(96,34)" d="m0 0h242l14 3 12 5 11 7 10 9 6 7 8 14 4 11 2 11v222h-1l-1-103-4 2-160 1-210-1-1 3v-122l3-15 5-13 9-13 13-13 13-8 13-5z" fill="#FFBF01"/>
<path transform="translate(28,341)" d="m0 0h1l1 10 7 18 9 14 10 10 14 9 13 5 14 3 120 1v188h-121l-14-3-12-5-10-6-10-9-9-10-8-15-4-14-1-7z" fill="#FE8300"/>
<path transform="translate(29,222)" d="m0 0 189 1v187l-121 1-17-4-12-5-13-9-11-11-8-13-7-18-1-10v-116z" fill="#FFEF02"/>
<path transform="translate(96,34)" d="m0 0h120l1 179 1 9h-189l-1 3v-122l3-15 5-13 9-13 13-13 13-8 13-5z" fill="#FE9A00"/>
<path transform="translate(1177,202)" d="m0 0h93l18 3 16 5 12 7 9 8 6 9 4 11 2 11v13l-4 14-5 9-9 10-10 6h-2v2l6 1 14 9 6 7 6 12 3 14v12l-3 16-8 16-7 8-10 7-11 5-14 4-15 2h-97zm46 36v57h38l14-3 8-5 6-7 2-7v-14l-3-9-5-6-8-4-9-2zm0 88v61l4 1h36l13-2 10-5 7-8 3-8v-15l-3-10-6-8-7-4-9-2z" fill="#969797"/>
<path transform="translate(566,202)" d="m0 0h99l16 3 12 4 13 7 11 9 9 12 6 13 3 13v24l-4 15-6 11-9 10-9 8-14 7-14 4-13 2h-54v79h-46zm46 36v70l5 1h41l10-2 10-5 7-8 4-10v-18l-3-10-6-9-9-6-9-3z" fill="#010101"/>
<path transform="translate(839,255)" d="m0 0 21 2 14 4 10 5 12 11 6 9 4 11 1 5 1 91 3 19 3 7v4h-44l-3-5-3-9-10 9-8 4-13 4h-18l-14-3-12-6-12-11-6-10-3-9v-21l4-12 5-8 5-6 10-7 12-5 16-4 8-1h35l-1-18-3-8-8-7-7-2h-10l-9 3-6 5-5 12h-42l-1-3 3-14 6-10 6-7 11-8 16-7 7-2zm-4 93-10 3-8 6-4 6-1 3v14l4 7 7 5 10 2 12-2 8-4 8-7 2-4v-29z" fill="#020202"/>
<path transform="translate(1370,258)" d="m0 0 46 1 3 7 17 57 10 33v4h2l2-10 27-90 1-1h47l-12 35-17 49-14 40-15 43-10 28-8 15-12 12-12 6-8 2h-21l-9-3v-32h11l12-3 5-3 6-10 5-13-2-9-9-25-15-43-21-60-10-28z" fill="#969797"/>
<path transform="translate(1731,256)" d="m0 0h25l16 4 12 6 11 9 8 10 7 14 4 15 2 16v24l-105 1 5 16 7 10 11 7 6 2 7 1h10l15-4 12-7 6-7 7 6 7 8 8 9-6 8-12 10-14 7-14 4-8 1h-22l-18-4-12-5-13-9-10-10-9-14-5-14-3-16v-22l3-19 5-14 5-10 7-9 4-5 12-9 12-6 10-3zm5 34-9 4-7 6-6 12-3 12 1 1h60l1-5-2-11-5-10-9-7-7-2z" fill="#969797"/>
<path transform="translate(1902,256)" d="m0 0h27l15 3 14 6 12 9 7 9 5 10 2 10v5h-44l-3-10-4-6-7-4-5-1h-12l-10 4-5 5-2 7 1 7 5 6 11 5 29 7 19 7 13 8 9 10 4 10 1 4v17l-3 9-6 11-10 9-16 8-15 4-8 1h-22l-16-3-12-5-11-7-8-7-7-10-5-12-1-11h42l2 9 5 8 6 4 13 3h10l10-3 6-4 3-9-1-7-3-5-12-6-31-8-16-6-14-9-7-7-5-8-2-6-1-15 3-12 6-11 10-10 10-6 10-4z" fill="#969797"/>
<path transform="translate(1563,218)" d="m0 0h44l1 40h17l10 1v31h-28l1 90 4 8 6 2h19v32l-5 2-12 2h-20l-14-4-9-6-8-9-4-10-2-12v-95h-23l-1-1v-12l1-18h23z" fill="#969797"/>
<path transform="translate(1120,256)" d="m0 0h17l4 1v41h-24l-13 4-7 5-4 7-1 109h-44v-164h41l1 1v17h2l2-4 7-8 11-7z" fill="#010101"/>
<path transform="translate(956,259)" d="m0 0h44v164h-44z" fill="#010101"/>
<path transform="translate(970,194)" d="m0 0h14l8 3 6 5 4 8v12l-4 8-8 6-8 2h-10l-8-3-6-4-5-10v-10l3-7 4-5z" fill="#030303"/>
<path transform="translate(373,48)" d="m0 0 8 6 8 8 7 11-2 2-5-5-3-4v-2l-4-2-4-4-2-5-3-3z" fill="#FFD702"/>
<path transform="translate(387,381)" d="m0 0 1 2-7 8-11 8v-3l12-9z" fill="#FFE703"/>
</svg>
